<mxfile host="65bd71144e">
    <diagram id="eRz4iOo6eL2ObuwE2JQ0" name="第 1 页">
        <mxGraphModel dx="453" dy="254" grid="1" gridSize="10" guides="1" tooltips="1" connect="1" arrows="1" fold="1" page="1" pageScale="1" pageWidth="827" pageHeight="1169" math="0" shadow="0">
            <root>
                <mxCell id="0"/>
                <mxCell id="1" parent="0"/>
                <mxCell id="19" style="edgeStyle=none;html=1;endArrow=none;endFill=0;" edge="1" parent="1" source="2" target="5">
                    <mxGeometry relative="1" as="geometry"/>
                </mxCell>
                <mxCell id="20" style="edgeStyle=none;html=1;endArrow=none;endFill=0;" edge="1" parent="1" source="2" target="7">
                    <mxGeometry relative="1" as="geometry"/>
                </mxCell>
                <mxCell id="2" value="A" style="ellipse;whiteSpace=wrap;html=1;fontFamily=Times New Roman;fontSize=19;" parent="1" vertex="1">
                    <mxGeometry x="300" y="140" width="40" height="40" as="geometry"/>
                </mxCell>
                <mxCell id="21" style="edgeStyle=none;html=1;endArrow=none;endFill=0;" edge="1" parent="1" source="5" target="6">
                    <mxGeometry relative="1" as="geometry"/>
                </mxCell>
                <mxCell id="5" value="B" style="ellipse;whiteSpace=wrap;html=1;fontFamily=Times New Roman;fontSize=19;" parent="1" vertex="1">
                    <mxGeometry x="270" y="190" width="40" height="40" as="geometry"/>
                </mxCell>
                <mxCell id="24" style="edgeStyle=none;html=1;endArrow=none;endFill=0;" edge="1" parent="1" source="6" target="9">
                    <mxGeometry relative="1" as="geometry"/>
                </mxCell>
                <mxCell id="6" value="D" style="ellipse;whiteSpace=wrap;html=1;fontFamily=Times New Roman;fontSize=19;" parent="1" vertex="1">
                    <mxGeometry x="240" y="240" width="40" height="40" as="geometry"/>
                </mxCell>
                <mxCell id="23" style="edgeStyle=none;html=1;endArrow=none;endFill=0;" edge="1" parent="1" source="7" target="8">
                    <mxGeometry relative="1" as="geometry"/>
                </mxCell>
                <mxCell id="7" value="C" style="ellipse;whiteSpace=wrap;html=1;fontFamily=Times New Roman;fontSize=19;" parent="1" vertex="1">
                    <mxGeometry x="330" y="190" width="40" height="40" as="geometry"/>
                </mxCell>
                <mxCell id="8" value="F" style="ellipse;whiteSpace=wrap;html=1;fontFamily=Times New Roman;fontSize=19;" parent="1" vertex="1">
                    <mxGeometry x="300" y="240" width="40" height="40" as="geometry"/>
                </mxCell>
                <mxCell id="9" value="E" style="ellipse;whiteSpace=wrap;html=1;fontFamily=Times New Roman;fontSize=19;" parent="1" vertex="1">
                    <mxGeometry x="270" y="290" width="40" height="40" as="geometry"/>
                </mxCell>
            </root>
        </mxGraphModel>
    </diagram>
</mxfile>